<svg width="137" height="71" viewBox="0 0 137 71" fill="none" xmlns="http://www.w3.org/2000/svg">
<path d="M35.7391 47.3333C32.463 47.3333 29.6585 46.1747 27.3255 43.8573C24.9926 41.5399 23.8261 38.7542 23.8261 35.5C23.8261 32.2458 24.9926 29.4601 27.3255 27.1427C29.6585 24.8253 32.463 23.6667 35.7391 23.6667C39.0152 23.6667 41.8197 24.8253 44.1527 27.1427C46.4857 29.4601 47.6522 32.2458 47.6522 35.5C47.6522 38.7542 46.4857 41.5399 44.1527 43.8573C41.8197 46.1747 39.0152 47.3333 35.7391 47.3333ZM35.7391 71C25.8116 71 17.3732 67.5486 10.4239 60.6458C3.47464 53.7431 0 45.3611 0 35.5C0 25.6389 3.47464 17.2569 10.4239 10.3542C17.3732 3.45139 25.8116 0 35.7391 0C42.3906 0 48.4216 1.62708 53.8321 4.88125C59.2426 8.13542 63.5362 12.425 66.713 17.75H119.13L137 35.5L110.196 62.125L98.2826 53.25L86.3696 62.125L73.712 53.25H66.713C63.5362 58.575 59.2426 62.8646 53.8321 66.1187C48.4216 69.3729 42.3906 71 35.7391 71ZM35.7391 59.1667C41.2985 59.1667 46.1879 57.4903 50.4071 54.1375C54.6263 50.7847 57.4308 46.5444 58.8206 41.4167H77.4348L86.0717 47.4813L98.2826 38.4583L108.855 46.5937L120.024 35.5L114.067 29.5833H58.8206C57.4308 24.4556 54.6263 20.2153 50.4071 16.8625C46.1879 13.5097 41.2985 11.8333 35.7391 11.8333C29.187 11.8333 23.5779 14.1507 18.912 18.7854C14.246 23.4201 11.913 28.9917 11.913 35.5C11.913 42.0083 14.246 47.5799 18.912 52.2146C23.5779 56.8493 29.187 59.1667 35.7391 59.1667Z" fill="white"/>
</svg>
